<svg xmlns="http://www.w3.org/2000/svg" xmlns:xlink="http://www.w3.org/1999/xlink" version="1.1" x="0px" y="0px" viewBox="0 0 100 100" style="enable-background:new 0 0 100 100;" xml:space="preserve"><g><polygon points="43.9717,78.1208 47.9717,78.1208 47.9717,45.1238 32.8096,26.8669 29.7324,29.4226 43.9717,46.5681  "></polygon></g><g><rect x="30.2021" y="31.3097" transform="matrix(0.7693 -0.6389 0.6389 0.7693 -18.9855 30.112)" width="4" height="20.0696"></rect></g><g><polygon points="56.0283,46.5681 70.2676,29.4226 67.1904,26.8669 52.0283,45.1238 52.0283,78.1208 56.0283,78.1208  "></polygon></g><g><rect x="57.7631" y="39.3445" transform="matrix(0.6389 -0.7693 0.7693 0.6389 -7.3238 67.0865)" width="20.0696" height="4"></rect></g><g><path d="M49.167,95.1326L50,95.5144l0.833-0.3818c3.5-1.604,27.373-16.0327,31.6221-26.0845   c3.98-9.415,2.7451-48.0674,2.6899-49.708l-0.0854-2.4082l-2.353,0.5234c-0.6597,0.1479-16.3164,3.4204-31.2925-11.5552L50,4.4856   l-1.4141,1.4146C33.3525,21.1335,17.978,17.6208,17.3374,17.4661l-2.4004-0.5991l-0.082,2.4731   c-0.0552,1.6406-1.29,40.293,2.6899,49.708C21.7939,79.0999,45.667,93.5286,49.167,95.1326z M18.7861,21.74   c5.2578,0.5664,18.2466,0.4277,31.2148-11.6475c12.8071,11.896,25.939,12.1201,31.2124,11.6138   c0.3193,12.311,0.3911,39.0796-2.4429,45.7842C75.4043,75.4543,55.5337,88.1575,50,91.0793   c-5.5337-2.9219-25.4043-15.625-28.7705-23.5889C18.3979,60.7922,18.4668,34.0657,18.7861,21.74z"></path></g></svg>
